name analog
datacolumns 19
datarows 27
range 0.4005 0.41350000000000003
endheader
time	ground_force_vx	ground_force_vy	ground_force_vz	ground_force_px	ground_force_py	ground_force_pz	l_ground_force_vx	l_ground_force_vy	l_ground_force_vz	l_ground_force_px	l_ground_force_py	l_ground_force_pz	ground_torque_x	ground_torque_y	ground_torque_z	l_ground_torque_x	l_ground_torque_y	l_ground_torque_z
0.4005	-0.0	-0.0	-0.0	11.091609954833984	252.4273681640625	-942.912109375	33.088253021240234	-208.4790954589844	-861.5886840820312	-0.0	-0.0	-0.0	-0.0	-0.0	-0.0	125983.546875	26364.474609375	-1403.9525146484375
0.401	-0.0	-0.0	-0.0	5.223792552947998	256.3092956542969	-941.5777587890624	26.947917938232425	-213.5422515869141	-861.47216796875	-0.0	-0.0	-0.0	-0.0	-0.0	-0.0	124524.921875	30039.125	-2236.78662109375
0.4015	-0.0	-0.0	-0.0	0.2477236986160278	258.0921936035156	-944.0090942382812	22.03996467590332	-218.3506317138672	-861.9776000976562	-0.0	-0.0	-0.0	-0.0	-0.0	-0.0	122656.796875	33445.1875	-3309.358642578125
0.402	-0.0	-0.0	-0.0	-4.519134521484375	260.0226745605469	-944.7142333984376	18.18647003173828	-223.6786651611328	-862.0552978515625	-0.0	-0.0	-0.0	-0.0	-0.0	-0.0	120904.8984375	37168.29296875	-4038.46826171875
0.4025	-0.0	-0.0	-0.0	-7.6812744140625	260.6772766113281	-945.462646484375	14.627924919128418	-228.0070953369141	-863.957275390625	-0.0	-0.0	-0.0	-0.0	-0.0	-0.0	119283.1640625	40811.23828125	-4954.966796875
0.403	-0.0	-0.0	-0.0	-11.476824760437012	259.9131164550781	-946.010009765625	10.76480770111084	-231.2261657714844	-867.7201538085938	-0.0	-0.0	-0.0	-0.0	-0.0	-0.0	118172.1796875	44133.76171875	-5891.25146484375
0.4035	-0.0	-0.0	-0.0	-15.393115997314451	259.0617980957031	-949.3019409179688	5.493668556213379	-233.0785369873047	-870.9760131835938	-0.0	-0.0	-0.0	-0.0	-0.0	-0.0	116773.3984375	47333.21484375	-7312.56298828125
0.404	-0.0	-0.0	-0.0	-17.704065322875977	258.9322509765625	-951.5467529296876	1.4421560764312744	-231.40283203125	-875.6722412109375	-0.0	-0.0	-0.0	-0.0	-0.0	-0.0	116111.265625	50264.63671875	-8893.8251953125
0.4045	-0.0	-0.0	-0.0	-17.785316467285156	259.74627685546875	-955.2393188476562	-2.056967258453369	-229.37142944335935	-878.1489868164062	-0.0	-0.0	-0.0	-0.0	-0.0	-0.0	114865.9375	53096.47265625	-10335.759765625
0.405	-0.0	-0.0	-0.0	-15.186100959777832	261.325927734375	-959.3975830078124	-3.814563751220703	-229.8010711669922	-885.6712036132812	-0.0	-0.0	-0.0	-0.0	-0.0	-0.0	114415.234375	55095.26171875	-11214.7607421875
0.4055	-0.0	-0.0	-0.0	-12.8463134765625	262.06378173828125	-964.675537109375	-2.346922874450684	-234.5778350830078	-895.4146728515625	-0.0	-0.0	-0.0	-0.0	-0.0	-0.0	115097.21875	56318.5546875	-10997.904296875
0.406	-0.0	-0.0	-0.0	-12.784948348999023	262.39990234375	-968.2866821289062	2.382493495941162	-239.37196350097656	-902.63671875	-0.0	-0.0	-0.0	-0.0	-0.0	-0.0	115574.8125	57673.95703125	-9948.259765625
0.40650000000000003	-0.0	-0.0	-0.0	-13.197105407714844	262.364990234375	-968.471923828125	4.818123817443848	-243.08889770507807	-908.7108764648438	-0.0	-0.0	-0.0	-0.0	-0.0	-0.0	115139.6875	58436.76953125	-8975.4375
0.40700000000000003	-0.0	-0.0	-0.0	-14.07468318939209	261.4607238769531	-970.701416015625	5.814105987548828	-246.57383728027344	-911.1774291992188	-0.0	-0.0	-0.0	-0.0	-0.0	-0.0	115167.296875	59409.84765625	-8592.54296875
0.40750000000000003	-0.0	-0.0	-0.0	-15.63913631439209	259.0335693359375	-972.5758666992188	4.783525466918945	-249.4136199951172	-911.7153930664062	-0.0	-0.0	-0.0	-0.0	-0.0	-0.0	114237.5390625	60162.875	-8402.3876953125
0.40800000000000003	-0.0	-0.0	-0.0	-17.28615951538086	255.38694763183597	-973.6609497070312	3.4120194911956787	-251.27561950683597	-912.4402465820312	-0.0	-0.0	-0.0	-0.0	-0.0	-0.0	113396.6328125	60865.76171875	-8428.89453125
0.40850000000000003	-0.0	-0.0	-0.0	-20.16157531738281	251.231689453125	-974.8587646484376	0.1171350479125976	-252.70884704589844	-910.23828125	-0.0	-0.0	-0.0	-0.0	-0.0	-0.0	112925.375	61582.37890625	-8757.798828125
0.40900000000000003	-0.0	-0.0	-0.0	-24.833332061767575	246.33566284179688	-977.1079711914062	-5.13701057434082	-253.3743896484375	-911.042236328125	-0.0	-0.0	-0.0	-0.0	-0.0	-0.0	112293.21875	62276.8515625	-9350.1083984375
0.40950000000000003	-0.0	-0.0	-0.0	-30.069625854492188	241.7672119140625	-980.1192626953124	-9.81725788116455	-252.07899475097656	-908.4692993164062	-0.0	-0.0	-0.0	-0.0	-0.0	-0.0	111454.2421875	63109.203125	-9951.103515625
0.41000000000000003	-0.0	-0.0	-0.0	-35.99916076660156	236.36839294433597	-982.3591918945312	-14.977001190185549	-250.3919677734375	-908.4108276367188	-0.0	-0.0	-0.0	-0.0	-0.0	-0.0	111362.7109375	63682.875	-10818.296875
0.41050000000000003	-0.0	-0.0	-0.0	-40.73250961303711	231.62893676757807	-988.1144409179688	-20.701379776000977	-247.62782287597656	-907.8545532226562	-0.0	-0.0	-0.0	-0.0	-0.0	-0.0	110917.4609375	64033.39453125	-11580.3095703125
0.41100000000000003	-0.0	-0.0	-0.0	-46.99782943725586	227.5548553466797	-992.7054443359376	-26.86880111694336	-244.5835418701172	-907.8764038085938	-0.0	-0.0	-0.0	-0.0	-0.0	-0.0	110698.90625	64674.46875	-12421.4736328125
0.41150000000000003	-0.0	-0.0	-0.0	-54.369171142578125	223.64927673339844	-997.9005737304688	-34.72654724121094	-241.93394470214844	-908.7592163085938	-0.0	-0.0	-0.0	-0.0	-0.0	-0.0	110145.21875	65253.08984375	-13637.255859375
0.41200000000000003	-0.0	-0.0	-0.0	-62.82238006591797	220.59320068359372	-1003.8571166992188	-43.4825553894043	-238.91488647460935	-910.6060791015624	-0.0	-0.0	-0.0	-0.0	-0.0	-0.0	110363.6171875	65755.171875	-15117.2412109375
0.41250000000000003	-0.0	-0.0	-0.0	-73.122802734375	219.1674346923828	-1005.5366821289062	-52.53009796142578	-236.3863525390625	-913.4810180664062	-0.0	-0.0	-0.0	-0.0	-0.0	-0.0	110168.59375	66422.125	-16674.037109375
0.41300000000000003	-0.0	-0.0	-0.0	-83.36383819580078	217.4103240966797	-1005.4346923828124	-60.48801803588867	-232.98843383789065	-913.8129272460938	-0.0	-0.0	-0.0	-0.0	-0.0	-0.0	109930.828125	66602.6640625	-18273.529296875
0.41350000000000003	-0.0	-0.0	-0.0	-93.10398864746094	215.18215942382807	-996.5601196289062	-68.33626556396484	-228.7742919921875	-912.6975708007812	-0.0	-0.0	-0.0	-0.0	-0.0	-0.0	109021.359375	66827.609375	-19530.859375
